<svg width="160" height="44" viewBox="0 0 160 44" fill="none" xmlns="http://www.w3.org/2000/svg">
<g clip-path="url(#clip0_204_18177)">
<path d="M21.046 10H8.2312V18.293L0 18.293L1.3258e-05 25.5269C2.3376e-05 31.0744 4.46341 35.5715 9.96926 35.5715L21.036 35.5715L21.046 27.2778H9.96926C9.00952 27.2778 8.2315 26.4939 8.23149 25.5269L8.2312 18.293H21.036L21.046 10Z" fill="#5227FF"/>
<path d="M43.4767 34.8178C36.0745 34.8178 31.4397 29.9163 31.4397 22.1139C31.4397 14.4116 36.3412 9.34338 43.7101 9.34338C49.8787 9.34338 54.3134 12.8778 55.0803 18.4128H49.3785C48.645 15.9454 46.5443 14.545 43.5768 14.545C39.5755 14.545 37.1415 17.3792 37.1415 22.0806C37.1415 26.7153 39.6089 29.6162 43.5768 29.6162C46.611 29.6162 48.845 28.1157 49.5119 25.6817H55.1136C54.2467 31.1833 49.6453 34.8178 43.4767 34.8178ZM57.1924 26.0485C57.1924 20.7802 61.0602 17.2458 66.3951 17.2458C71.6968 17.2458 75.5646 20.7802 75.5646 26.0485C75.5646 31.3167 71.6968 34.8178 66.3951 34.8178C61.0602 34.8178 57.1924 31.3167 57.1924 26.0485ZM62.3606 26.0151C62.3606 28.5492 63.9944 30.2164 66.3951 30.2164C68.7625 30.2164 70.3964 28.5492 70.3964 26.0151C70.3964 23.5144 68.7625 21.8472 66.3951 21.8472C63.9944 21.8472 62.3606 23.5144 62.3606 26.0151ZM81.0756 15.1451C79.4418 15.1451 78.1414 13.8447 78.1414 12.2109C78.1414 10.5771 79.4418 9.31004 81.0756 9.31004C82.6761 9.31004 83.9765 10.5771 83.9765 12.2109C83.9765 13.8447 82.6761 15.1451 81.0756 15.1451ZM78.5415 34.4177V17.7459H83.6764V34.4177H78.5415ZM92.6635 34.4177H87.5286V17.7459H92.3634L92.6969 19.4798C93.7305 18.046 95.6311 17.2124 97.7984 17.2124C101.766 17.2124 104.067 19.7465 104.067 24.1145V34.4177H98.9321V25.3482C98.9321 23.2476 97.7651 21.8805 95.9979 21.8805C93.9639 21.8805 92.6635 23.2143 92.6635 25.2816V34.4177ZM112.057 34.4177L104.655 9.74351H110.29L113.525 20.4468C113.958 21.9139 114.358 23.381 114.758 25.8151C115.158 23.381 115.559 21.9806 115.992 20.4468L119.026 9.74351H125.061L127.962 20.4468C128.362 21.9472 128.763 23.4477 129.196 25.8151C129.696 23.3143 130.063 21.9472 130.496 20.5134L133.797 9.74351H139.299L131.763 34.4177H126.495L121.994 18.2127L117.359 34.4177H112.057Z" fill="#5227FF"/>
</g>
<defs>
<clipPath id="clip0_204_18177">
<rect width="160" height="44" fill="white"/>
</clipPath>
</defs>
</svg>
